<?xml version="1.0" standalone="no"?>
<!DOCTYPE svg PUBLIC "-//W3C//DTD SVG 20010904//EN"
 "http://www.w3.org/TR/2001/REC-SVG-20010904/DTD/svg10.dtd">
<svg version="1.0" xmlns="http://www.w3.org/2000/svg"
 width="250.000000pt" height="250.000000pt" viewBox="0 0 250.000000 250.000000"
 preserveAspectRatio="xMidYMid meet">
<metadata>
Created by potrace 1.11, written by Peter Selinger 2001-2013
</metadata>
<g transform="translate(0.000000,250.000000) scale(0.100000,-0.100000)"
fill="#000000" stroke="none">
<path d="M751 1939 l-502 -502 45 -46 46 -46 -47 -48 -47 -47 49 -50 49 -50
-42 -43 -41 -42 501 -502 c276 -277 503 -502 505 -500 1 1 227 226 501 499
l498 497 -50 50 -50 51 44 45 44 45 -42 43 c-23 23 -42 47 -42 52 0 6 18 26
40 45 22 19 40 40 40 45 0 6 -224 234 -498 508 l-498 498 -503 -502z m1435
-540 l-41 -38 -447 447 -448 447 -444 -444 -444 -444 -30 24 c-17 13 -33 31
-37 39 -4 9 148 168 477 497 l483 483 486 -486 486 -486 -41 -39z m-494 384
l438 -438 -37 -37 -37 -38 -398 397 -397 397 -173 -170 c-95 -94 -274 -273
-397 -398 -124 -124 -228 -226 -232 -226 -9 0 -79 70 -79 78 0 8 862 872 870
872 3 0 202 -197 442 -437z m-40 -141 l388 -388 -174 -173 -173 -173 -1 51
c-3 94 -67 177 -159 204 -27 7 -82 13 -123 12 l-75 -1 -3 -227 -2 -226 85 -3
85 -3 -122 -122 -123 -123 -389 389 -389 389 181 182 182 181 0 -63 c1 -140
98 -240 230 -234 72 3 132 35 167 88 23 35 28 52 28 107 l0 65 -102 1 -103 1
0 -42 0 -42 40 2 c21 2 44 0 51 -4 18 -12 0 -49 -31 -65 -90 -47 -184 36 -166
147 17 106 115 150 187 84 l27 -25 31 33 c17 17 31 37 31 43 0 16 -70 60 -108
68 -19 4 -49 7 -68 7 -19 0 -34 2 -34 5 0 6 233 242 240 242 3 1 180 -174 392
-387z m-1250 -435 l-39 -39 -42 43 -41 43 37 38 37 38 43 -42 43 -42 -38 -39z
m1788 78 l34 -35 -37 -37 -37 -37 -35 34 c-19 19 -35 38 -35 42 0 12 53 66 66
67 5 1 25 -15 44 -34z m-1327 -459 c213 -212 390 -386 393 -386 4 0 71 65 150
144 79 80 163 158 187 175 24 16 55 47 69 68 28 42 382 403 396 403 4 0 23
-16 42 -35 l34 -35 -440 -441 -441 -441 -432 432 c-237 238 -431 437 -431 443
0 18 64 74 75 66 6 -4 185 -181 398 -393z m1331 273 l40 -40 -487 -487 -486
-486 -485 487 -486 488 36 36 36 36 99 -99 c55 -55 254 -253 442 -442 188
-188 344 -342 347 -342 4 0 206 200 451 445 244 244 446 445 449 445 3 0 23
-18 44 -41z m-662 -46 c45 -41 62 -118 36 -166 -16 -31 -56 -67 -76 -68 -9 0
-25 -2 -34 -4 -20 -4 -19 -7 -19 150 0 52 0 100 0 106 1 17 69 4 93 -18z"/>
</g>
</svg>
