<?xml version="1.0"?>
<svg xmlns="http://www.w3.org/2000/svg" id="Capa_1" enable-background="new 0 0 512 512" height="512px" viewBox="0 0 512 512" width="512px" class=""><g><g><path d="m0 29.447v453.106h512v-453.106zm339.401 30-56.447 68.106h-252.954v-68.106zm142.599 393.106h-452v-295h267.054l81.312-98.106h103.634z" data-original="#000000" class="active-path" data-old_color="#000000" fill="#FFFFFF"/><path d="m64.333 78.542h30v30.167h-30z" data-original="#000000" class="active-path" data-old_color="#000000" fill="#FFFFFF"/><path d="m119.667 78.542h30v30.167h-30z" data-original="#000000" class="active-path" data-old_color="#000000" fill="#FFFFFF"/><path d="m175 78.542h30v30.167h-30z" data-original="#000000" class="active-path" data-old_color="#000000" fill="#FFFFFF"/><path d="m204.598 325.5c0 14.061-11.439 25.5-25.5 25.5s-25.5-11.439-25.5-25.5v-93.5h-30v93.5c0 30.603 24.897 55.5 55.5 55.5s55.5-24.897 55.5-55.5v-93.5h-30z" data-original="#000000" class="active-path" data-old_color="#000000" fill="#FFFFFF"/><path d="m347.886 231.5-24.487 44.099-24.485-44.099h-34.315l41.643 75-41.643 75h34.315l24.485-44.099 24.487 44.099h34.315l-41.644-75 41.644-75z" data-original="#000000" class="active-path" data-old_color="#000000" fill="#FFFFFF"/></g></g> </svg>
